Coordinates
version=1
nRows=25
nColumns=38
inDegrees=no

Units are S.I. units (second, meters, Newtons, ...)
If the header above contains a line with 'inDegrees', this indicates whether rotational values are in degrees (yes) or radians (no).

endheader
time	pelvis_tilt	pelvis_list	pelvis_rotation	pelvis_tx	pelvis_ty	pelvis_tz	hip_flexion_r	hip_adduction_r	hip_rotation_r	knee_angle_r	ankle_angle_r	subtalar_angle_r	mtp_angle_r	hip_flexion_l	hip_adduction_l	hip_rotation_l	knee_angle_l	ankle_angle_l	subtalar_angle_l	mtp_angle_l	lumbar_extension	lumbar_bending	lumbar_rotation	arm_flex_r	arm_add_r	arm_rot_r	elbow_flex_r	pro_sup_r	wrist_flex_r	wrist_dev_r	arm_flex_l	arm_add_l	arm_rot_l	elbow_flex_l	pro_sup_l	wrist_flex_l	wrist_dev_l
0	2.88502	1.49077	-1.32957	0.649925	-1.24788	1.03027	0.325348	0.0312988	0.0225117	0.870156	-0.202595	0	0	-0.0888275	0.00402126	-0.339038	0.300423	-0.238618	0	0	-0.251253	0.142192	0.236096	-0.945517	-1.05845	-0.35887	2.40165	0	0	0	0.346592	-0.425341	0.26085	1.22512	0.687949	0	0
0.01	2.87324	1.49597	-1.31792	0.649874	-1.24031	1.02962	0.344896	0.0315329	0.0142041	0.850259	-0.202022	0	0	-0.0900864	0.00558761	-0.337484	0.301699	-0.236137	0	0	-0.245069	0.142005	0.235042	-0.94095	-1.0555	-0.354463	2.40161	0	0	0	0.347206	-0.426641	0.26117	1.22653	0.683824	0	0
0.02	2.88235	1.50354	-1.32895	0.649832	-1.23251	1.02844	0.37615	0.0151189	0.0254761	0.85741	-0.206161	0	0	-0.0889674	0.00938126	-0.339321	0.304549	-0.232125	0	0	-0.236685	0.140046	0.23554	-0.93889	-1.05228	-0.352095	2.40275	0	0	0	0.346472	-0.428509	0.261064	1.2287	0.680569	0	0
0.03	2.85111	1.50611	-1.29676	0.649855	-1.22419	1.02796	0.384364	0.0303963	-0.00925384	0.840318	-0.200178	0	0	-0.0925665	0.00787411	-0.342798	0.308449	-0.227551	0	0	-0.229334	0.141167	0.232975	-0.93106	-1.05038	-0.343607	2.39919	0	0	0	0.345521	-0.430296	0.261631	1.22866	0.67777	0	0
0.04	2.80353	1.50798	-1.24898	0.649715	-1.21624	1.02753	0.388816	0.0343833	-0.0163604	0.791207	-0.199976	0	0	-0.0960359	0.00565293	-0.345333	0.312787	-0.222232	0	0	-0.223688	0.144007	0.231218	-0.924542	-1.05069	-0.33792	2.39604	0	0	0	0.344869	-0.431338	0.261741	1.22852	0.67609	0	0
0.05	2.79437	1.50894	-1.23995	0.64949	-1.20815	1.02699	0.397929	0.0336721	-0.0314127	0.757605	-0.199336	0	0	-0.0987008	0.00968811	-0.35979	0.323525	-0.216249	0	0	-0.219793	0.144866	0.229809	-0.919657	-1.05148	-0.333806	2.39383	0	0	0	0.344175	-0.432284	0.261242	1.22901	0.675404	0	0
0.06	2.7623	1.51256	-1.20732	0.649372	-1.19981	1.02615	0.409628	0.0322463	-0.0502583	0.721628	-0.199184	0	0	-0.10002	0.00871825	-0.367567	0.331331	-0.208766	0	0	-0.208785	0.154256	0.232988	-0.921698	-1.04492	-0.335503	2.39706	0	0	0	0.341655	-0.477789	0.306886	1.2401	0.737796	0	0
0.07	2.75269	1.51487	-1.19785	0.649397	-1.19162	1.02513	0.420257	0.0307515	-0.0661768	0.690252	-0.199332	0	0	-0.104596	0.00926524	-0.371614	0.33512	-0.203594	0	0	-0.203743	0.152811	0.232997	-0.920466	-1.04436	-0.334321	2.39446	0	0	0	0.343744	-0.481676	0.312136	1.24118	0.755095	0	0
0.08	2.74071	1.5169	-1.18553	0.649415	-1.1834	1.02413	0.429105	0.0294837	-0.083721	0.656565	-0.200159	0	0	-0.109568	0.0095721	-0.374463	0.338562	-0.198156	0	0	-0.198933	0.15232	0.232455	-0.918339	-1.04482	-0.33195	2.39197	0	0	0	0.34436	-0.482743	0.312913	1.24174	0.765268	0	0
0.09	2.72636	1.51903	-1.17097	0.649542	-1.17513	1.02307	0.437092	0.0285299	-0.101329	0.622273	-0.201179	0	0	-0.114885	0.00966559	-0.376555	0.341367	-0.193007	0	0	-0.194125	0.152256	0.231646	-0.915271	-1.04542	-0.328707	2.38979	0	0	0	0.344027	-0.483332	0.312209	1.24232	0.771489	0	0
0.1	2.71698	1.5214	-1.16081	0.649639	-1.16682	1.02197	0.444018	0.02703	-0.118653	0.588131	-0.202646	0	0	-0.119946	0.00999233	-0.377722	0.344431	-0.188024	0	0	-0.18925	0.152234	0.23008	-0.911845	-1.04593	-0.325311	2.38788	0	0	0	0.343326	-0.48389	0.311288	1.2428	0.775758	0	0
0.11	2.70658	1.52442	-1.14963	0.649815	-1.15836	1.0208	0.450431	0.0255093	-0.134887	0.55498	-0.204237	0	0	-0.124581	0.0106138	-0.378786	0.347409	-0.183188	0	0	-0.183512	0.152051	0.228288	-0.907716	-1.04617	-0.320873	2.38574	0	0	0	0.342152	-0.484609	0.310456	1.243	0.779224	0	0
0.12	2.70238	1.52734	-1.14366	0.649946	-1.14976	1.01964	0.45435	0.0238721	-0.151528	0.517379	-0.205723	0	0	-0.12948	0.0113246	-0.379009	0.350498	-0.178583	0	0	-0.177671	0.151854	0.225502	-0.903338	-1.04613	-0.316107	2.38336	0	0	0	0.340984	-0.485147	0.309814	1.24257	0.782419	0	0
0.13	2.70466	1.52973	-1.14397	0.650148	-1.1411	1.01853	0.457186	0.0224471	-0.165901	0.484867	-0.206639	0	0	-0.135369	0.0116426	-0.378414	0.353252	-0.174531	0	0	-0.172511	0.151824	0.222752	-0.89902	-1.04599	-0.311517	2.38105	0	0	0	0.340192	-0.485284	0.309429	1.2415	0.784477	0	0
0.14	2.68829	1.53156	-1.12542	0.650391	-1.13236	1.01749	0.458183	0.0220423	-0.178061	0.453225	-0.207223	0	0	-0.141653	0.0106519	-0.377073	0.356058	-0.169866	0	0	-0.167408	0.153034	0.219955	-0.894545	-1.04567	-0.306737	2.3784	0	0	0	0.339012	-0.484623	0.308625	1.23966	0.785385	0	0
0.15	2.67227	1.53272	-1.10724	0.650679	-1.12346	1.01647	0.458481	0.022374	-0.187452	0.427419	-0.206761	0	0	-0.148928	0.00952803	-0.376723	0.358518	-0.165857	0	0	-0.163016	0.15452	0.217519	-0.891681	-1.04548	-0.303138	2.37611	0	0	0	0.337743	-0.483742	0.307919	1.23794	0.784947	0	0
0.16	2.66642	1.53326	-1.0988	0.650984	-1.11439	1.01549	0.457817	0.0226778	-0.194347	0.406219	-0.206177	0	0	-0.156714	0.0083188	-0.377851	0.361755	-0.162275	0	0	-0.159154	0.155903	0.214885	-0.889565	-1.04551	-0.299923	2.37383	0	0	0	0.336302	-0.482876	0.307355	1.23645	0.783243	0	0
0.17	2.66622	1.53377	-1.09555	0.651292	-1.10516	1.01449	0.457073	0.0226845	-0.198329	0.390476	-0.205438	0	0	-0.164856	0.00693882	-0.379066	0.365005	-0.159312	0	0	-0.155211	0.157387	0.211863	-0.887812	-1.04579	-0.296805	2.37164	0	0	0	0.334964	-0.482114	0.307653	1.23463	0.782001	0	0
0.18	2.67484	1.53353	-1.10081	0.65166	-1.09578	1.01357	0.455139	0.0229308	-0.199802	0.380438	-0.204175	0	0	-0.173229	0.00490359	-0.381256	0.369966	-0.156447	0	0	-0.15183	0.159049	0.208821	-0.886764	-1.0462	-0.294245	2.36955	0	0	0	0.334021	-0.481471	0.308936	1.23228	0.78168	0	0
0.19	2.70099	1.53209	-1.12271	0.65192	-1.08638	1.0128	0.451573	0.0224357	-0.20004	0.376907	-0.202355	0	0	-0.181866	0.00255199	-0.383503	0.377185	-0.153661	0	0	-0.15015	0.160737	0.205366	-0.887105	-1.04691	-0.293319	2.36776	0	0	0	0.33351	-0.480545	0.310501	1.23011	0.781071	0	0
0.2	2.7401	1.53006	-1.15808	0.652271	-1.07701	1.01207	0.448278	0.0212614	-0.198068	0.381389	-0.200407	0	0	-0.190743	0.000401273	-0.386499	0.385718	-0.150608	0	0	-0.14992	0.162003	0.202647	-0.888283	-1.04801	-0.293598	2.36647	0	0	0	0.333534	-0.479997	0.312757	1.22848	0.780528	0	0
0.21	2.78475	1.52851	-1.19924	0.652739	-1.0675	1.01124	0.446609	0.0196139	-0.19546	0.393956	-0.199778	0	0	-0.198603	-0.00169665	-0.389698	0.395727	-0.148242	0	0	-0.149323	0.162517	0.200333	-0.889633	-1.04903	-0.293886	2.36509	0	0	0	0.333594	-0.479897	0.315545	1.22722	0.780969	0	0
0.22	2.82037	1.52355	-1.23212	0.653015	-1.05793	1.01026	0.44179	0.0194004	-0.192157	0.410743	-0.200175	0	0	-0.210068	-0.00517469	-0.394172	0.40524	-0.146443	0	0	-0.153283	0.172049	0.191368	-0.856078	-1.00051	-0.296156	2.366	0	0	0	0.324577	-0.481372	0.306936	1.22633	0.778339	0	0
0.23	2.87411	1.51984	-1.28104	0.653565	-1.04808	1.00952	0.436742	0.0175573	-0.190119	0.431117	-0.200652	0	0	-0.218882	-0.00870614	-0.396024	0.418652	-0.14495	0	0	-0.155392	0.17586	0.184758	-0.849937	-0.985925	-0.30321	2.36722	0	0	0	0.319793	-0.480631	0.301762	1.22496	0.775638	0	0
0.24	2.91374	1.51601	-1.31513	0.654086	-1.03798	1.00875	0.430236	0.016135	-0.189261	0.453096	-0.201362	0	0	-0.226499	-0.0134898	-0.396824	0.434777	-0.143499	0	0	-0.156849	0.178177	0.179616	-0.848632	-0.981082	-0.306035	2.36713	0	0	0	0.317126	-0.479768	0.300081	1.22469	0.7734	0	0
